<svg width="25" height="25" viewBox="0 0 25 25" fill="none" xmlns="http://www.w3.org/2000/svg">
<path d="M12.5 5.72917C13.4669 5.72917 14.3943 6.11328 15.078 6.79701C15.7617 7.48073 16.1458 8.40807 16.1458 9.375C16.1458 10.3419 15.7617 11.2693 15.078 11.953C14.3943 12.6367 13.4669 13.0208 12.5 13.0208C11.5331 13.0208 10.6057 12.6367 9.92201 11.953C9.23828 11.2693 8.85417 10.3419 8.85417 9.375C8.85417 8.40807 9.23828 7.48073 9.92201 6.79701C10.6057 6.11328 11.5331 5.72917 12.5 5.72917ZM5.20833 8.33333C5.79167 8.33333 6.33333 8.48958 6.80208 8.77083C6.64583 10.2604 7.08333 11.7396 7.97917 12.8958C7.45833 13.8958 6.41667 14.5833 5.20833 14.5833C4.37953 14.5833 3.58468 14.2541 2.99862 13.668C2.41257 13.082 2.08333 12.2871 2.08333 11.4583C2.08333 10.6295 2.41257 9.83468 2.99862 9.24863C3.58468 8.66257 4.37953 8.33333 5.20833 8.33333ZM19.7917 8.33333C20.6205 8.33333 21.4153 8.66257 22.0014 9.24863C22.5874 9.83468 22.9167 10.6295 22.9167 11.4583C22.9167 12.2871 22.5874 13.082 22.0014 13.668C21.4153 14.2541 20.6205 14.5833 19.7917 14.5833C18.5833 14.5833 17.5417 13.8958 17.0208 12.8958C17.9167 11.7396 18.3542 10.2604 18.1979 8.77083C18.6667 8.48958 19.2083 8.33333 19.7917 8.33333ZM5.72917 19.0104C5.72917 16.8542 8.76042 15.1042 12.5 15.1042C16.2396 15.1042 19.2708 16.8542 19.2708 19.0104V20.8333H5.72917V19.0104ZM0 20.8333V19.2708C0 17.8229 1.96875 16.6042 4.63542 16.25C4.02083 16.9583 3.64583 17.9375 3.64583 19.0104V20.8333H0ZM25 20.8333H21.3542V19.0104C21.3542 17.9375 20.9792 16.9583 20.3646 16.25C23.0312 16.6042 25 17.8229 25 19.2708V20.8333Z" fill="white"/>
</svg>
