<svg width="25" height="25" viewBox="0 0 25 25" fill="none" xmlns="http://www.w3.org/2000/svg">
<path d="M6.25 2.08333C7.0788 2.08333 7.87366 2.41257 8.45971 2.99862C9.04576 3.58467 9.375 4.37953 9.375 5.20833C9.375 6.54167 8.53125 7.6875 7.35417 8.13542C7.44792 8.61458 7.69792 9.19792 8.33333 10.0312C9.375 11.375 11.4583 13.3646 12.5 14.7604C13.5417 13.3646 15.625 11.375 16.6667 10.0312C17.3021 9.19792 17.5521 8.61458 17.6458 8.13542C16.4688 7.6875 15.625 6.54167 15.625 5.20833C15.625 4.37953 15.9542 3.58467 16.5403 2.99862C17.1263 2.41257 17.9212 2.08333 18.75 2.08333C19.5788 2.08333 20.3737 2.41257 20.9597 2.99862C21.5458 3.58467 21.875 4.37953 21.875 5.20833C21.875 6.58333 20.9792 7.76042 19.7396 8.17708C19.6563 8.71875 19.4167 9.375 18.75 10.2396C17.7083 11.6354 15.625 13.625 14.5833 14.9792C13.9479 15.8021 13.6979 16.3854 13.6042 16.8646C14.7812 17.3125 15.625 18.4583 15.625 19.7917C15.625 20.6205 15.2958 21.4153 14.7097 22.0014C14.1237 22.5874 13.3288 22.9167 12.5 22.9167C11.6712 22.9167 10.8763 22.5874 10.2903 22.0014C9.70424 21.4153 9.375 20.6205 9.375 19.7917C9.375 18.4583 10.2187 17.3125 11.3958 16.8646C11.3021 16.3854 11.0521 15.8021 10.4167 14.9792C9.375 13.625 7.29167 11.6354 6.25 10.2396C5.58333 9.375 5.34375 8.71875 5.26042 8.17708C4.02083 7.76042 3.125 6.58333 3.125 5.20833C3.125 4.37953 3.45424 3.58467 4.04029 2.99862C4.62634 2.41257 5.4212 2.08333 6.25 2.08333ZM6.25 4.16667C5.97373 4.16667 5.70878 4.27641 5.51343 4.47176C5.31808 4.66711 5.20833 4.93207 5.20833 5.20833C5.20833 5.4846 5.31808 5.74955 5.51343 5.9449C5.70878 6.14025 5.97373 6.25 6.25 6.25C6.52627 6.25 6.79122 6.14025 6.98657 5.9449C7.18192 5.74955 7.29167 5.4846 7.29167 5.20833C7.29167 4.93207 7.18192 4.66711 6.98657 4.47176C6.79122 4.27641 6.52627 4.16667 6.25 4.16667ZM18.75 4.16667C18.4737 4.16667 18.2088 4.27641 18.0134 4.47176C17.8181 4.66711 17.7083 4.93207 17.7083 5.20833C17.7083 5.4846 17.8181 5.74955 18.0134 5.9449C18.2088 6.14025 18.4737 6.25 18.75 6.25C19.0263 6.25 19.2912 6.14025 19.4866 5.9449C19.6819 5.74955 19.7917 5.4846 19.7917 5.20833C19.7917 4.93207 19.6819 4.66711 19.4866 4.47176C19.2912 4.27641 19.0263 4.16667 18.75 4.16667ZM12.5 18.75C12.2237 18.75 11.9588 18.8597 11.7634 19.0551C11.5681 19.2504 11.4583 19.5154 11.4583 19.7917C11.4583 20.0679 11.5681 20.3329 11.7634 20.5282C11.9588 20.7236 12.2237 20.8333 12.5 20.8333C12.7763 20.8333 13.0412 20.7236 13.2366 20.5282C13.4319 20.3329 13.5417 20.0679 13.5417 19.7917C13.5417 19.5154 13.4319 19.2504 13.2366 19.0551C13.0412 18.8597 12.7763 18.75 12.5 18.75Z" fill="black"/>
</svg>
