<svg width="25" height="25" viewBox="0 0 25 25" fill="none" xmlns="http://www.w3.org/2000/svg">
<path d="M10.4167 21.875H14.5834C14.5834 22.4275 14.3639 22.9574 13.9732 23.3481C13.5825 23.7388 13.0526 23.9583 12.5 23.9583C11.9475 23.9583 11.4176 23.7388 11.0269 23.3481C10.6362 22.9574 10.4167 22.4275 10.4167 21.875ZM21.875 19.7917V20.8333H3.12502V19.7917L5.20835 17.7083V11.4583C5.20835 8.22917 7.32294 5.38542 10.4167 4.46875C10.4167 4.36458 10.4167 4.27083 10.4167 4.16667C10.4167 3.61413 10.6362 3.08423 11.0269 2.69353C11.4176 2.30283 11.9475 2.08333 12.5 2.08333C13.0526 2.08333 13.5825 2.30283 13.9732 2.69353C14.3639 3.08423 14.5834 3.61413 14.5834 4.16667C14.5834 4.27083 14.5834 4.36458 14.5834 4.46875C17.6771 5.38542 19.7917 8.22917 19.7917 11.4583V17.7083L21.875 19.7917ZM17.7084 11.4583C17.7084 10.077 17.1596 8.75224 16.1829 7.77548C15.2061 6.79873 13.8814 6.25 12.5 6.25C11.1187 6.25 9.79392 6.79873 8.81717 7.77548C7.84042 8.75224 7.29169 10.077 7.29169 11.4583V18.75H17.7084V11.4583ZM20.5729 3.32292L19.0938 4.80208C20.875 6.5625 21.875 8.95833 21.875 11.4583H23.9584C23.9584 8.40625 22.75 5.46875 20.5729 3.32292ZM1.04169 11.4583H3.12502C3.12502 8.95833 4.12502 6.5625 5.90627 4.80208L4.4271 3.32292C2.25002 5.46875 1.04169 8.40625 1.04169 11.4583Z" fill="black"/>
</svg>
