<svg width="25" height="25" viewBox="0 0 25 25" fill="none" xmlns="http://www.w3.org/2000/svg">
<path d="M22.9167 3.125H2.08333C0.947917 3.16667 0.0416667 4.07292 0 5.20833V19.7917C0.0416667 20.9271 0.947917 21.8333 2.08333 21.875H22.9167C24.0521 21.8333 24.9583 20.9271 25 19.7917V5.20833C24.9583 4.07292 24.0521 3.16667 22.9167 3.125ZM22.9167 19.7917H2.08333V5.20833H22.9167V19.7917ZM14.5833 17.7083V16.4062C14.5833 14.6771 11.1042 13.8021 9.375 13.8021C7.64583 13.8021 4.16667 14.6771 4.16667 16.4062V17.7083H14.5833ZM9.375 7.29167C8.68433 7.29167 8.02195 7.56603 7.53358 8.05441C7.0452 8.54279 6.77083 9.20517 6.77083 9.89583C6.77083 10.2378 6.83819 10.5765 6.96906 10.8924C7.09993 11.2084 7.29176 11.4954 7.53358 11.7373C8.02195 12.2256 8.68433 12.5 9.375 12.5C9.71698 12.5 10.0556 12.4326 10.3716 12.3018C10.6875 12.1709 10.9746 11.9791 11.2164 11.7373C11.4582 11.4954 11.6501 11.2084 11.7809 10.8924C11.9118 10.5765 11.9792 10.2378 11.9792 9.89583C11.9792 9.55385 11.9118 9.21521 11.7809 8.89926C11.6501 8.58331 11.4582 8.29623 11.2164 8.05441C10.9746 7.81259 10.6875 7.62077 10.3716 7.4899C10.0556 7.35903 9.71698 7.29167 9.375 7.29167ZM14.5833 7.29167V8.33333H20.8333V7.29167H14.5833ZM14.5833 9.375V10.4167H20.8333V9.375H14.5833ZM14.5833 11.4583V12.5H18.75V11.4583H14.5833Z" fill="white"/>
</svg>
