<svg width="25" height="25" viewBox="0 0 25 25" fill="none" xmlns="http://www.w3.org/2000/svg">
<path d="M12.5 16.1458C11.5331 16.1458 10.6057 15.7617 9.92202 15.078C9.2383 14.3943 8.85418 13.4669 8.85418 12.5C8.85418 11.5331 9.2383 10.6057 9.92202 9.92201C10.6057 9.23828 11.5331 8.85417 12.5 8.85417C13.467 8.85417 14.3943 9.23828 15.078 9.92201C15.7617 10.6057 16.1458 11.5331 16.1458 12.5C16.1458 13.4669 15.7617 14.3943 15.078 15.078C14.3943 15.7617 13.467 16.1458 12.5 16.1458ZM20.2396 13.5104C20.2813 13.1771 20.3125 12.8437 20.3125 12.5C20.3125 12.1562 20.2813 11.8125 20.2396 11.4583L22.4375 9.76042C22.6354 9.60417 22.6875 9.32292 22.5625 9.09375L20.4792 5.48958C20.3542 5.26042 20.0729 5.16667 19.8438 5.26042L17.25 6.30208C16.7083 5.89583 16.1458 5.54167 15.4896 5.28125L15.1042 2.52083C15.0625 2.27083 14.8438 2.08333 14.5833 2.08333H10.4167C10.1563 2.08333 9.93752 2.27083 9.89585 2.52083L9.51043 5.28125C8.85418 5.54167 8.29168 5.89583 7.75002 6.30208L5.15627 5.26042C4.9271 5.16667 4.64585 5.26042 4.52085 5.48958L2.43752 9.09375C2.3021 9.32292 2.3646 9.60417 2.56252 9.76042L4.76043 11.4583C4.71877 11.8125 4.68752 12.1562 4.68752 12.5C4.68752 12.8437 4.71877 13.1771 4.76043 13.5104L2.56252 15.2396C2.3646 15.3958 2.3021 15.6771 2.43752 15.9063L4.52085 19.5104C4.64585 19.7396 4.9271 19.8229 5.15627 19.7396L7.75002 18.6875C8.29168 19.1042 8.85418 19.4583 9.51043 19.7188L9.89585 22.4792C9.93752 22.7292 10.1563 22.9167 10.4167 22.9167H14.5833C14.8438 22.9167 15.0625 22.7292 15.1042 22.4792L15.4896 19.7188C16.1458 19.4479 16.7083 19.1042 17.25 18.6875L19.8438 19.7396C20.0729 19.8229 20.3542 19.7396 20.4792 19.5104L22.5625 15.9063C22.6875 15.6771 22.6354 15.3958 22.4375 15.2396L20.2396 13.5104Z" fill="white"/>
</svg>
