<svg width="25" height="25" viewBox="0 0 25 25" fill="none" xmlns="http://www.w3.org/2000/svg">
<path d="M6.04165 21.875L7.70831 14.5833L2.08331 9.58333L9.58331 8.95833L12.5 2.08333L15.4166 8.95833L22.9166 9.58333L19.5833 12.5H18.75C18.0208 12.5 17.2916 12.6042 16.5625 12.9167L18.8541 10.9375L14.2708 10.5208L12.5 6.35417L10.7291 10.5208L6.14581 10.9375L9.58331 13.9583L8.54165 18.4375L12.5 16.0417L13.0208 16.3542C12.8125 16.875 12.6041 17.5 12.6041 18.0208L6.04165 21.875ZM17.7083 14.5833V17.7083H14.5833V19.7917H17.7083V22.9167H19.7916V19.7917H22.9166V17.7083H19.7916V14.5833H17.7083Z" fill="black"/>
</svg>
