<svg width="25" height="25" viewBox="0 0 25 25" fill="none" xmlns="http://www.w3.org/2000/svg">
<path d="M11.4583 18.75H13.5417V16.6667H11.4583V18.75ZM12.5 6.25C11.3949 6.25 10.3351 6.68899 9.55372 7.47039C8.77232 8.25179 8.33333 9.3116 8.33333 10.4167H10.4167C10.4167 9.86413 10.6362 9.33423 11.0269 8.94353C11.4176 8.55283 11.9475 8.33333 12.5 8.33333C13.0525 8.33333 13.5824 8.55283 13.9731 8.94353C14.3638 9.33423 14.5833 9.86413 14.5833 10.4167C14.5833 12.5 11.4583 12.2396 11.4583 15.625H13.5417C13.5417 13.2812 16.6667 13.0208 16.6667 10.4167C16.6667 9.3116 16.2277 8.25179 15.4463 7.47039C14.6649 6.68899 13.6051 6.25 12.5 6.25ZM5.20833 3.125H19.7917C20.3442 3.125 20.8741 3.34449 21.2648 3.73519C21.6555 4.12589 21.875 4.6558 21.875 5.20833V19.7917C21.875 20.3442 21.6555 20.8741 21.2648 21.2648C20.8741 21.6555 20.3442 21.875 19.7917 21.875H5.20833C4.6558 21.875 4.12589 21.6555 3.73519 21.2648C3.34449 20.8741 3.125 20.3442 3.125 19.7917V5.20833C3.125 4.6558 3.34449 4.12589 3.73519 3.73519C4.12589 3.34449 4.6558 3.125 5.20833 3.125Z" fill="white"/>
</svg>
