<svg width="25" height="25" viewBox="0 0 25 25" fill="none" xmlns="http://www.w3.org/2000/svg">
<path d="M16.6667 9.375H22.3959L16.6667 3.64583V9.375ZM7.29169 2.08333H17.7084L23.9584 8.33333V18.75C23.9584 19.3025 23.7389 19.8324 23.3482 20.2231C22.9575 20.6138 22.4276 20.8333 21.875 20.8333H7.29169C6.13544 20.8333 5.20835 19.8958 5.20835 18.75V4.16667C5.20835 3.61413 5.42785 3.08423 5.81855 2.69353C6.20925 2.30283 6.73915 2.08333 7.29169 2.08333ZM3.12502 6.25V22.9167H21.875V25H3.12502C2.57249 25 2.04258 24.7805 1.65188 24.3898C1.26118 23.9991 1.04169 23.4692 1.04169 22.9167V6.25H3.12502Z" fill="white"/>
</svg>
