<svg width="25" height="25" viewBox="0 0 25 25" fill="none" xmlns="http://www.w3.org/2000/svg">
<path d="M12.5 4.6875C7.29169 4.6875 2.84377 7.92708 1.04169 12.5C2.84377 17.0729 7.29169 20.3125 12.5 20.3125C12.875 20.3125 13.25 20.3125 13.625 20.2604C13.5729 19.9271 13.5417 19.6042 13.5417 19.2708C13.5417 18.8958 13.5834 18.5208 13.6459 18.1458C13.2709 18.1875 12.8854 18.2292 12.5 18.2292C8.58335 18.2292 5.03127 16 3.31252 12.5C5.03127 9 8.58335 6.77083 12.5 6.77083C16.4167 6.77083 19.9688 9 21.6875 12.5C21.5625 12.75 21.4167 12.9687 21.2813 13.2083C21.9688 13.375 22.625 13.6562 23.2188 14.0625C23.5 13.5417 23.75 13.0208 23.9584 12.5C22.1563 7.92708 17.7084 4.6875 12.5 4.6875ZM12.5 9.375C11.6712 9.375 10.8764 9.70424 10.2903 10.2903C9.70426 10.8763 9.37502 11.6712 9.37502 12.5C9.37502 13.3288 9.70426 14.1237 10.2903 14.7097C10.8764 15.2958 11.6712 15.625 12.5 15.625C13.3288 15.625 14.1237 15.2958 14.7097 14.7097C15.2958 14.1237 15.625 13.3288 15.625 12.5C15.625 11.6712 15.2958 10.8763 14.7097 10.2903C14.1237 9.70424 13.3288 9.375 12.5 9.375ZM18.75 15.1042V18.2292H15.625V20.3125H18.75V23.4375H20.8334V20.3125H23.9584V18.2292H20.8334V15.1042H18.75Z" fill="black"/>
</svg>
